<svg width="90" height="90" viewBox="0 0 90 90" fill="none" xmlns="http://www.w3.org/2000/svg">
<circle cx="45" cy="45" r="45" fill="#F2F2F2"/>
<path d="M45 50.5C48.0376 50.5 50.5 48.0376 50.5 45C50.5 41.9624 48.0376 39.5 45 39.5C41.9624 39.5 39.5 41.9624 39.5 45C39.5 48.0376 41.9624 50.5 45 50.5Z" fill="#8B889C"/>
<path d="M59.6665 30.3333H53.8548L51.5815 27.8583C50.9032 27.1067 49.9132 26.6667 48.8865 26.6667H41.1132C40.0865 26.6667 39.0965 27.1067 38.3998 27.8583L36.1448 30.3333H30.3332C28.3165 30.3333 26.6665 31.9833 26.6665 34V56C26.6665 58.0167 28.3165 59.6667 30.3332 59.6667H59.6665C61.6832 59.6667 63.3332 58.0167 63.3332 56V34C63.3332 31.9833 61.6832 30.3333 59.6665 30.3333ZM44.9998 54.1667C39.9398 54.1667 35.8332 50.06 35.8332 45C35.8332 39.94 39.9398 35.8333 44.9998 35.8333C50.0598 35.8333 54.1665 39.94 54.1665 45C54.1665 50.06 50.0598 54.1667 44.9998 54.1667Z" fill="#8B889C"/>
</svg>
