<svg width="565" height="491" viewBox="0 0 565 491" fill="none" xmlns="http://www.w3.org/2000/svg">
<g id="undraw_mobile_marketing_re_p77p 1" clip-path="url(#clip0_12_32)">
<path id="Path 22" d="M470.705 116.319H468.019V42.6433C468.019 31.3336 463.533 20.4871 455.548 12.49C447.562 4.49278 436.731 7.46593e-06 425.438 0H269.567C263.975 0 258.438 1.103 253.272 3.24603C248.106 5.38906 243.411 8.53015 239.457 12.4899C235.503 16.4497 232.367 21.1507 230.227 26.3244C228.087 31.4982 226.986 37.0433 226.986 42.6433V446.842C226.986 458.152 231.472 468.999 239.457 476.996C247.443 484.993 258.274 489.486 269.567 489.486H425.438C436.731 489.485 447.562 484.993 455.547 476.996C463.533 468.998 468.019 458.152 468.019 446.842V168.763H470.704L470.705 116.319Z" fill="#E6E6E6"/>
<path id="Path 23" d="M427.156 11.0902H406.812C407.747 13.3876 408.104 15.8802 407.851 18.3485C407.599 20.8167 406.743 23.1847 405.361 25.244C403.979 27.3033 402.113 28.9905 399.926 30.1571C397.739 31.3237 395.3 31.9338 392.822 31.9337H303.526C301.048 31.9336 298.609 31.3233 296.422 30.1566C294.236 28.99 292.369 27.3027 290.987 25.2434C289.605 23.1842 288.75 20.8162 288.498 18.3481C288.245 15.88 288.602 13.3875 289.538 11.0902H270.534C262.101 11.0902 254.012 14.4453 248.049 20.4176C242.085 26.3898 238.735 34.4898 238.735 42.9358V446.548C238.735 454.994 242.085 463.094 248.049 469.066C254.012 475.038 262.101 478.394 270.534 478.394H427.156C435.59 478.394 443.678 475.038 449.642 469.066C455.605 463.094 458.956 454.994 458.956 446.548V42.9352C458.955 34.4893 455.605 26.3894 449.641 20.4173C443.678 14.4452 435.59 11.0902 427.156 11.0902Z" fill="white"/>
<path id="Vector" d="M301.47 105.233C300.621 105.241 299.78 105.069 299.002 104.73C298.224 104.391 297.526 103.891 296.953 103.264C296.273 102.477 295.764 101.557 295.456 100.563C295.149 99.5688 295.05 98.5217 295.166 97.4875C295.328 95.5176 296.152 93.6609 297.504 92.2211C298.154 91.518 298.94 90.9552 299.814 90.5672C300.689 90.1792 301.633 89.9742 302.589 89.9648C303.479 89.9609 304.359 90.1445 305.173 90.5036C305.986 90.8628 306.715 91.3896 307.312 92.0496C307.99 92.816 308.501 93.7149 308.815 94.6893C309.128 95.6637 309.236 96.6925 309.132 97.7108C309.005 99.8007 308.105 101.768 306.607 103.229C305.213 104.529 303.375 105.246 301.47 105.233ZM302.589 92.5095C300.102 92.5095 297.953 94.7941 297.697 97.7106C297.612 98.3933 297.669 99.0861 297.863 99.7459C298.058 100.406 298.386 101.018 298.827 101.545C299.161 101.913 299.569 102.206 300.025 102.403C300.481 102.6 300.973 102.697 301.47 102.689C303.795 102.689 306.284 101.08 306.6 97.4872C306.674 96.8205 306.608 96.1459 306.408 95.5059C306.208 94.8658 305.878 94.2742 305.438 93.7681C305.078 93.3699 304.639 93.0519 304.148 92.8351C303.657 92.6183 303.126 92.5073 302.589 92.5095Z" fill="#3F3D56"/>
<path id="Vector_2" d="M301.552 112.868C299.587 112.9 297.637 112.513 295.832 111.732C294.027 110.952 292.409 109.797 291.084 108.342C289.759 106.888 288.758 105.168 288.147 103.297C287.537 101.425 287.331 99.4453 287.542 97.488C287.959 93.3799 289.866 89.5675 292.902 86.7737C295.938 83.9799 299.893 82.3989 304.016 82.3305C308.59 82.3305 312.354 83.8023 314.9 86.5869C317.314 89.2273 318.445 92.9443 318.083 97.0531C317.741 100.945 316.092 102.973 314.769 103.988C314.185 104.465 313.51 104.818 312.785 105.026C312.061 105.234 311.302 105.292 310.554 105.198C308.462 104.826 306.149 102.924 306.513 98.7837L307.186 91.1294C307.218 90.7945 307.38 90.4856 307.638 90.2702C307.896 90.0548 308.228 89.9505 308.563 89.98C308.898 90.0095 309.207 90.1705 309.423 90.4277C309.64 90.685 309.746 91.0176 309.718 91.3528L309.044 99.0069C308.863 101.065 309.594 102.443 310.997 102.692C311.806 102.755 312.606 102.495 313.224 101.968C314.142 101.263 315.291 99.8001 315.552 96.8298C315.855 93.3913 314.981 90.4437 313.026 88.3055C310.974 86.0614 307.858 84.8752 304.016 84.8752C300.528 84.9414 297.185 86.2831 294.617 88.6474C292.048 91.0116 290.433 94.2351 290.074 97.71C289.893 99.3156 290.056 100.941 290.554 102.479C291.051 104.016 291.87 105.429 292.957 106.623C294.044 107.817 295.373 108.765 296.855 109.403C298.338 110.041 299.939 110.355 301.552 110.323C303.542 110.431 305.53 110.07 307.356 109.269C307.666 109.14 308.015 109.139 308.326 109.267C308.636 109.395 308.884 109.641 309.014 109.951C309.144 110.262 309.147 110.611 309.02 110.923C308.894 111.234 308.649 111.483 308.34 111.615C306.203 112.547 303.881 112.975 301.552 112.868Z" fill="#3F3D56"/>
<path id="Vector_3" d="M288.137 294.738C287.886 294.738 287.641 294.663 287.432 294.523C287.223 294.383 287.06 294.185 286.964 293.952C286.868 293.72 286.842 293.464 286.891 293.217C286.94 292.97 287.061 292.744 287.239 292.566L295.497 284.295C295.736 284.06 296.059 283.928 296.394 283.929C296.729 283.93 297.051 284.064 297.288 284.302C297.525 284.539 297.659 284.861 297.66 285.197C297.661 285.533 297.53 285.855 297.294 286.095L289.036 294.365C288.918 294.483 288.778 294.577 288.624 294.641C288.47 294.705 288.304 294.738 288.137 294.738ZM309.101 291.557C308.85 291.557 308.604 291.482 308.395 291.342C308.186 291.203 308.024 291.004 307.927 290.771C307.831 290.539 307.806 290.283 307.855 290.036C307.904 289.789 308.025 289.563 308.203 289.385L315.191 282.387C315.43 282.151 315.752 282.019 316.087 282.021C316.422 282.022 316.744 282.156 316.981 282.393C317.218 282.631 317.352 282.952 317.353 283.288C317.354 283.624 317.223 283.947 316.987 284.186L310 291.184C309.882 291.302 309.742 291.396 309.588 291.46C309.433 291.524 309.268 291.557 309.101 291.557ZM305.29 291.557C305.123 291.557 304.957 291.524 304.803 291.46C304.649 291.396 304.509 291.302 304.391 291.184L299.309 286.095C299.19 285.977 299.095 285.836 299.03 285.682C298.965 285.527 298.931 285.361 298.931 285.193C298.93 285.025 298.963 284.859 299.026 284.704C299.09 284.549 299.184 284.408 299.303 284.289C299.421 284.17 299.562 284.076 299.717 284.012C299.872 283.948 300.038 283.916 300.206 283.916C300.373 283.917 300.539 283.951 300.694 284.016C300.848 284.081 300.988 284.176 301.106 284.295L306.188 289.385C306.366 289.563 306.487 289.789 306.536 290.036C306.585 290.283 306.56 290.539 306.463 290.771C306.367 291.004 306.204 291.203 305.995 291.342C305.786 291.482 305.541 291.557 305.29 291.557Z" fill="#3F3D56"/>
<path id="Vector_4" d="M317.995 284.559C317.367 284.559 316.753 284.372 316.23 284.023C315.708 283.673 315.301 283.176 315.06 282.595C314.82 282.014 314.757 281.374 314.88 280.757C315.002 280.14 315.305 279.573 315.749 279.129C316.193 278.684 316.759 278.381 317.375 278.258C317.991 278.135 318.63 278.198 319.21 278.439C319.791 278.68 320.287 279.087 320.636 279.611C320.985 280.134 321.171 280.749 321.171 281.378C321.17 282.221 320.835 283.03 320.24 283.626C319.644 284.222 318.837 284.558 317.995 284.559ZM317.995 280.742C317.869 280.742 317.746 280.779 317.642 280.849C317.537 280.919 317.456 281.018 317.408 281.134C317.36 281.251 317.347 281.379 317.372 281.502C317.396 281.625 317.457 281.739 317.546 281.828C317.635 281.917 317.748 281.977 317.871 282.002C317.994 282.026 318.122 282.014 318.238 281.966C318.354 281.917 318.453 281.836 318.523 281.731C318.593 281.627 318.63 281.504 318.63 281.378C318.63 281.209 318.563 281.047 318.444 280.928C318.325 280.809 318.163 280.742 317.995 280.742Z" fill="#3F3D56"/>
<path id="Vector_5" d="M307.195 295.374C306.567 295.374 305.953 295.187 305.431 294.838C304.908 294.488 304.501 293.992 304.261 293.41C304.02 292.829 303.958 292.189 304.08 291.572C304.203 290.955 304.505 290.389 304.949 289.944C305.394 289.499 305.96 289.196 306.576 289.073C307.192 288.95 307.831 289.013 308.411 289.254C308.991 289.495 309.487 289.903 309.836 290.426C310.185 290.949 310.372 291.564 310.372 292.193C310.371 293.036 310.036 293.845 309.44 294.441C308.845 295.038 308.038 295.373 307.195 295.374ZM307.195 291.557C307.07 291.557 306.947 291.594 306.842 291.664C306.738 291.734 306.657 291.833 306.608 291.95C306.56 292.066 306.548 292.194 306.572 292.317C306.597 292.441 306.657 292.554 306.746 292.643C306.835 292.732 306.948 292.792 307.071 292.817C307.195 292.842 307.322 292.829 307.439 292.781C307.555 292.733 307.654 292.651 307.724 292.547C307.793 292.442 307.831 292.319 307.831 292.193C307.83 292.024 307.763 291.863 307.644 291.743C307.525 291.624 307.364 291.557 307.195 291.557Z" fill="#3F3D56"/>
<path id="Vector_6" d="M298.302 286.467C297.674 286.467 297.059 286.281 296.537 285.931C296.015 285.582 295.608 285.085 295.367 284.504C295.127 283.922 295.064 283.283 295.186 282.666C295.309 282.049 295.611 281.482 296.056 281.037C296.5 280.592 297.066 280.289 297.682 280.167C298.298 280.044 298.937 280.107 299.517 280.348C300.098 280.588 300.594 280.996 300.943 281.519C301.292 282.042 301.478 282.657 301.478 283.286C301.477 284.13 301.142 284.938 300.547 285.535C299.951 286.131 299.144 286.466 298.302 286.467ZM298.302 282.65C298.176 282.65 298.053 282.687 297.949 282.757C297.844 282.827 297.763 282.927 297.715 283.043C297.667 283.159 297.654 283.287 297.679 283.41C297.703 283.534 297.764 283.647 297.853 283.736C297.941 283.825 298.055 283.886 298.178 283.91C298.301 283.935 298.429 283.922 298.545 283.874C298.661 283.826 298.76 283.744 298.83 283.64C298.9 283.535 298.937 283.412 298.937 283.286C298.937 283.118 298.87 282.956 298.751 282.837C298.632 282.717 298.47 282.65 298.302 282.65Z" fill="#3F3D56"/>
<path id="Vector_7" d="M286.232 298.555C285.603 298.555 284.989 298.368 284.467 298.019C283.945 297.669 283.538 297.172 283.297 296.591C283.057 296.01 282.994 295.37 283.116 294.753C283.239 294.136 283.541 293.57 283.986 293.125C284.43 292.68 284.996 292.377 285.612 292.254C286.228 292.131 286.867 292.194 287.447 292.435C288.028 292.676 288.524 293.084 288.873 293.607C289.222 294.13 289.408 294.745 289.408 295.374C289.407 296.217 289.072 297.026 288.477 297.622C287.881 298.218 287.074 298.554 286.232 298.555ZM286.232 294.738C286.106 294.738 285.983 294.775 285.879 294.845C285.774 294.915 285.693 295.014 285.645 295.13C285.597 295.247 285.584 295.375 285.609 295.498C285.633 295.621 285.694 295.735 285.783 295.824C285.871 295.913 285.985 295.973 286.108 295.998C286.231 296.022 286.359 296.01 286.475 295.962C286.591 295.914 286.69 295.832 286.76 295.727C286.83 295.623 286.867 295.5 286.867 295.374C286.867 295.205 286.8 295.044 286.681 294.924C286.562 294.805 286.4 294.738 286.232 294.738Z" fill="#3F3D56"/>
<path id="Vector_8" d="M406.81 396.676H380.128C378.949 396.674 377.819 396.205 376.986 395.37C376.152 394.535 375.683 393.403 375.682 392.222V373.137C375.683 371.956 376.152 370.824 376.986 369.989C377.819 369.154 378.949 368.685 380.128 368.683H406.81C407.989 368.685 409.119 369.154 409.952 369.989C410.786 370.824 411.255 371.956 411.256 373.137V392.222C411.255 393.403 410.786 394.535 409.952 395.37C409.119 396.205 407.989 396.674 406.81 396.676ZM380.128 371.228C379.623 371.229 379.139 371.43 378.781 371.788C378.424 372.146 378.223 372.631 378.223 373.137V392.222C378.223 392.728 378.424 393.213 378.781 393.571C379.139 393.929 379.623 394.13 380.128 394.131H406.81C407.315 394.13 407.799 393.929 408.157 393.571C408.514 393.213 408.715 392.728 408.715 392.222V373.137C408.715 372.631 408.514 372.146 408.157 371.788C407.799 371.43 407.315 371.229 406.81 371.228L380.128 371.228Z" fill="#3F3D56"/>
<path id="Vector_9" d="M393.469 385.224C393.186 385.224 392.912 385.13 392.689 384.956L381.254 376.05C381.122 375.947 381.012 375.819 380.93 375.674C380.847 375.529 380.794 375.369 380.774 375.203C380.753 375.037 380.765 374.869 380.809 374.708C380.853 374.547 380.929 374.396 381.031 374.264C381.134 374.132 381.261 374.022 381.406 373.939C381.551 373.857 381.711 373.803 381.877 373.783C382.042 373.762 382.21 373.774 382.371 373.818C382.532 373.863 382.683 373.938 382.814 374.041L393.469 382.34L404.124 374.041C404.255 373.938 404.406 373.863 404.567 373.818C404.728 373.774 404.896 373.762 405.061 373.783C405.227 373.803 405.387 373.857 405.532 373.939C405.677 374.022 405.804 374.132 405.907 374.264C406.009 374.396 406.085 374.547 406.129 374.708C406.173 374.869 406.185 375.037 406.165 375.203C406.144 375.369 406.091 375.529 406.008 375.674C405.926 375.819 405.816 375.947 405.684 376.05L394.249 384.956C394.026 385.13 393.752 385.224 393.469 385.224Z" fill="#3F3D56"/>
<path id="Vector_10" d="M536.774 414.29L389.803 414.349C389.617 414.349 389.438 414.275 389.306 414.143C389.174 414.011 389.1 413.832 389.1 413.645C389.1 413.458 389.174 413.279 389.306 413.147C389.438 413.015 389.617 412.941 389.803 412.941L536.774 412.883C536.961 412.883 537.139 412.957 537.271 413.089C537.403 413.221 537.477 413.4 537.477 413.587C537.477 413.773 537.403 413.952 537.271 414.084C537.139 414.216 536.961 414.29 536.774 414.29Z" fill="#CCCCCC"/>
<path id="Vector_11" d="M534.818 423.439C540.252 423.439 544.657 419.028 544.657 413.587C544.657 408.145 540.252 403.734 534.818 403.734C529.385 403.734 524.98 408.145 524.98 413.587C524.98 419.028 529.385 423.439 534.818 423.439Z" fill="#5656D8"/>
<path id="Vector_12" d="M533.261 225.683L384.884 225.741C384.698 225.741 384.519 225.667 384.387 225.535C384.255 225.403 384.181 225.224 384.181 225.038C384.181 224.851 384.255 224.672 384.387 224.54C384.519 224.408 384.698 224.334 384.884 224.334L533.261 224.276C533.447 224.276 533.626 224.35 533.758 224.482C533.889 224.614 533.963 224.793 533.963 224.979C533.963 225.166 533.889 225.345 533.758 225.477C533.626 225.609 533.447 225.683 533.261 225.683Z" fill="#CCCCCC"/>
<path id="Vector_13" d="M534.818 235.536C540.252 235.536 544.657 231.125 544.657 225.683C544.657 220.242 540.252 215.83 534.818 215.83C529.385 215.83 524.98 220.242 524.98 225.683C524.98 231.125 529.385 235.536 534.818 235.536Z" fill="#5656D8"/>
<path id="Vector_14" d="M153.385 129.268L301.761 129.326C301.948 129.326 302.126 129.252 302.258 129.12C302.39 128.988 302.464 128.809 302.464 128.623C302.464 128.436 302.39 128.257 302.258 128.125C302.126 127.993 301.948 127.919 301.761 127.919L153.385 127.861C153.198 127.861 153.02 127.935 152.888 128.067C152.756 128.199 152.682 128.378 152.682 128.564C152.682 128.751 152.756 128.93 152.888 129.062C153.02 129.194 153.198 129.268 153.385 129.268Z" fill="#CCCCCC"/>
<path id="Vector_15" d="M151.827 139.121C157.261 139.121 161.665 134.71 161.665 129.268C161.665 123.827 157.261 119.416 151.827 119.416C146.393 119.416 141.989 123.827 141.989 129.268C141.989 134.71 146.393 139.121 151.827 139.121Z" fill="#5656D8"/>
<path id="Vector_16" d="M153.385 319.987L301.761 320.045C301.948 320.045 302.126 319.971 302.258 319.839C302.39 319.707 302.464 319.528 302.464 319.341C302.464 319.155 302.39 318.976 302.258 318.844C302.126 318.712 301.948 318.637 301.761 318.637L153.385 318.579C153.198 318.579 153.02 318.653 152.888 318.785C152.756 318.917 152.682 319.096 152.682 319.283C152.682 319.47 152.756 319.649 152.888 319.781C153.02 319.913 153.198 319.987 153.385 319.987Z" fill="#CCCCCC"/>
<path id="Vector_17" d="M151.827 329.839C157.261 329.839 161.665 325.428 161.665 319.987C161.665 314.545 157.261 310.134 151.827 310.134C146.393 310.134 141.989 314.545 141.989 319.987C141.989 325.428 146.393 329.839 151.827 329.839Z" fill="#5656D8"/>
<path id="Vector_18" d="M393.469 414.349C387.215 414.349 381.101 412.491 375.9 409.011C370.7 405.532 366.647 400.586 364.253 394.799C361.86 389.012 361.233 382.644 362.454 376.501C363.674 370.358 366.686 364.715 371.108 360.286C375.531 355.857 381.165 352.841 387.3 351.619C393.434 350.397 399.792 351.024 405.571 353.421C411.349 355.818 416.288 359.877 419.763 365.085C423.237 370.293 425.092 376.416 425.092 382.68C425.083 391.076 421.748 399.125 415.819 405.062C409.891 411 401.853 414.339 393.469 414.349ZM393.469 352.418C387.492 352.418 381.65 354.193 376.681 357.518C371.712 360.843 367.839 365.569 365.552 371.099C363.264 376.628 362.666 382.713 363.832 388.583C364.998 394.453 367.876 399.846 372.102 404.078C376.328 408.31 381.712 411.192 387.574 412.36C393.435 413.527 399.511 412.928 405.033 410.638C410.554 408.347 415.274 404.468 418.594 399.492C421.914 394.515 423.687 388.665 423.687 382.68C423.678 374.656 420.491 366.965 414.826 361.291C409.161 355.618 401.48 352.427 393.469 352.418Z" fill="#CCCCCC"/>
<path id="Vector_19" d="M302.113 320.045C295.859 320.045 289.745 318.188 284.544 314.708C279.344 311.228 275.291 306.282 272.897 300.495C270.504 294.708 269.878 288.341 271.098 282.198C272.318 276.054 275.33 270.411 279.752 265.982C284.175 261.553 289.81 258.537 295.944 257.315C302.078 256.093 308.437 256.72 314.215 259.117C319.993 261.514 324.932 265.573 328.407 270.781C331.882 275.989 333.736 282.112 333.736 288.376C333.727 296.772 330.392 304.822 324.464 310.759C318.535 316.696 310.497 320.035 302.113 320.045ZM302.113 258.114C296.137 258.114 290.294 259.889 285.325 263.214C280.356 266.539 276.483 271.266 274.196 276.795C271.909 282.325 271.31 288.409 272.476 294.28C273.642 300.15 276.52 305.542 280.746 309.774C284.972 314.006 290.356 316.888 296.218 318.056C302.08 319.224 308.155 318.624 313.677 316.334C319.199 314.044 323.918 310.165 327.238 305.188C330.559 300.212 332.331 294.361 332.331 288.376C332.322 280.353 329.135 272.661 323.47 266.988C317.805 261.314 310.125 258.123 302.113 258.114Z" fill="#CCCCCC"/>
<path id="Vector_20" d="M387.144 225.741C380.89 225.741 374.776 223.884 369.575 220.404C364.375 216.924 360.322 211.978 357.928 206.192C355.535 200.405 354.909 194.037 356.129 187.894C357.349 181.751 360.361 176.108 364.783 171.679C369.206 167.25 374.841 164.234 380.975 163.012C387.109 161.79 393.468 162.417 399.246 164.814C405.024 167.211 409.963 171.27 413.438 176.478C416.913 181.686 418.768 187.809 418.768 194.072C418.758 202.469 415.423 210.518 409.495 216.455C403.566 222.392 395.528 225.732 387.144 225.741ZM387.144 163.811C381.168 163.811 375.326 165.585 370.356 168.911C365.387 172.236 361.514 176.962 359.227 182.492C356.94 188.021 356.341 194.106 357.507 199.976C358.673 205.846 361.551 211.238 365.777 215.47C370.003 219.703 375.388 222.585 381.249 223.752C387.111 224.92 393.187 224.321 398.708 222.03C404.23 219.74 408.949 215.861 412.269 210.885C415.59 205.908 417.362 200.057 417.362 194.072C417.353 186.049 414.166 178.357 408.502 172.684C402.837 167.011 395.156 163.82 387.144 163.811Z" fill="#CCCCCC"/>
<path id="Vector_21" d="M302.816 129.268C296.562 129.268 290.448 127.411 285.247 123.931C280.047 120.451 275.994 115.505 273.6 109.718C271.207 103.931 270.58 97.5639 271.801 91.4207C273.021 85.2775 276.033 79.6346 280.455 75.2056C284.878 70.7766 290.512 67.7604 296.647 66.5384C302.781 65.3164 309.139 65.9436 314.918 68.3406C320.696 70.7375 325.635 74.7966 329.11 80.0046C332.584 85.2125 334.439 91.3354 334.439 97.599C334.43 105.995 331.095 114.045 325.166 119.982C319.238 125.919 311.2 129.259 302.816 129.268ZM302.816 67.3374C296.84 67.3374 290.997 69.1122 286.028 72.4374C281.059 75.7626 277.186 80.4888 274.899 86.0184C272.611 91.548 272.013 97.6326 273.179 103.503C274.345 109.373 277.223 114.765 281.449 118.997C285.675 123.229 291.059 126.112 296.921 127.279C302.782 128.447 308.858 127.848 314.38 125.557C319.901 123.267 324.621 119.388 327.941 114.411C331.261 109.435 333.034 103.584 333.034 97.599C333.025 89.5759 329.838 81.884 324.173 76.2108C318.508 70.5376 310.827 67.3465 302.816 67.3374Z" fill="#CCCCCC"/>
<path id="Vector_22" d="M104.358 343.842C103.494 343.182 102.778 342.347 102.257 341.391C101.736 340.436 101.422 339.381 101.335 338.296C101.316 338.043 101.31 337.789 101.317 337.536L68.5919 315.464C67.5208 314.734 66.7139 313.678 66.2914 312.451C65.8689 311.225 65.8533 309.895 66.2471 308.659L81.8877 269.744C82.5608 268.069 83.8693 266.729 85.5266 266.018C87.1839 265.307 89.0551 265.282 90.7304 265.95C92.4058 266.617 93.7487 267.922 94.4652 269.579C95.1817 271.236 95.2135 273.11 94.5535 274.79L81.9255 306.945L107.408 330.124C107.744 330.047 108.085 329.995 108.429 329.966C110.397 329.809 112.35 330.413 113.888 331.652C115.426 332.892 116.433 334.673 116.701 336.632C116.969 338.591 116.478 340.578 115.33 342.187C114.182 343.795 112.463 344.902 110.525 345.282C110.028 345.378 109.523 345.426 109.017 345.427C107.332 345.428 105.694 344.871 104.358 343.842Z" fill="#A0616A"/>
<path id="Vector_23" d="M68.6052 292.658C68.4137 292.21 68.3209 291.726 68.3332 291.239C68.3455 290.752 68.4626 290.274 68.6764 289.836L76.1427 274.553C76.8961 272.178 78.5593 270.199 80.7676 269.049C82.976 267.9 85.5493 267.675 87.9233 268.423C90.2973 269.17 92.2784 270.831 93.4321 273.039C94.5858 275.247 94.818 277.824 94.0777 280.203L91.3518 297.053C91.274 297.533 91.0936 297.992 90.8229 298.397C90.5522 298.801 90.1976 299.143 89.7832 299.398C89.3689 299.653 88.9044 299.816 88.4216 299.875C87.9388 299.934 87.4489 299.888 86.9853 299.741L70.6922 294.556C70.2285 294.408 69.802 294.163 69.4418 293.835C69.0816 293.507 68.7962 293.106 68.6052 292.658Z" fill="#5656D8"/>
<path id="Vector_24" d="M120.103 481.336H128.719L132.817 448.056L120.102 448.057L120.103 481.336Z" fill="#A0616A"/>
<path id="Vector_25" d="M117.906 478.519L134.872 478.518H134.873C136.293 478.518 137.699 478.798 139.011 479.342C140.323 479.886 141.515 480.684 142.519 481.69C143.523 482.695 144.319 483.889 144.863 485.203C145.406 486.516 145.686 487.924 145.686 489.346V489.698L117.906 489.699L117.906 478.519Z" fill="#2F2E41"/>
<path id="Vector_26" d="M35.8571 475.223L44.2014 477.37L56.4431 446.16L44.1276 442.991L35.8571 475.223Z" fill="#A0616A"/>
<path id="Vector_27" d="M34.4288 471.946L50.8616 476.175L50.8623 476.176C52.2375 476.53 53.5297 477.151 54.665 478.005C55.8003 478.859 56.7565 479.929 57.479 481.153C58.2015 482.377 58.6762 483.732 58.8759 485.14C59.0756 486.548 58.9965 487.981 58.643 489.358L58.5555 489.699L31.6502 482.775L34.4288 471.946Z" fill="#2F2E41"/>
<path id="Vector_28" d="M96.2852 253.03C105.818 253.03 113.545 245.291 113.545 235.745C113.545 226.199 105.818 218.46 96.2852 218.46C86.7528 218.46 79.0253 226.199 79.0253 235.745C79.0253 245.291 86.7528 253.03 96.2852 253.03Z" fill="#A0616A"/>
<path id="Vector_29" d="M87.5556 307.642C83.4491 303.409 79.9626 298.614 77.2 293.402C75.7307 290.543 74.8753 287.409 74.6889 284.2C74.5025 280.991 74.9891 277.778 76.1176 274.768C77.2699 271.692 79.0526 268.891 81.3511 266.547C83.6496 264.202 86.4129 262.365 89.4631 261.154C94.8122 258.98 100.78 258.891 106.192 260.902C111.604 262.914 116.068 266.882 118.706 272.025C123.024 280.489 124.717 288.765 123.736 296.623C121.861 311.645 120.763 319.41 120.474 319.7L120.377 319.797L88.2696 321.225L87.5556 307.642Z" fill="#5656D8"/>
<path id="Vector_30" d="M89.4625 317.068L118.195 315.636C118.921 315.6 119.632 315.846 120.18 316.324C120.728 316.801 121.07 317.473 121.135 318.197L134.352 466.572C134.388 466.966 134.339 467.363 134.211 467.738C134.082 468.112 133.876 468.455 133.606 468.744C133.337 469.033 133.009 469.262 132.645 469.416C132.28 469.57 131.888 469.645 131.493 469.636L120.267 469.397C119.65 469.384 119.054 469.168 118.572 468.782C118.09 468.396 117.748 467.861 117.599 467.261L96.1542 380.725C96.0139 380.159 95.7014 379.651 95.26 379.27C94.8186 378.889 94.27 378.655 93.6901 378.601C93.1102 378.546 92.5277 378.673 92.023 378.964C91.5182 379.255 91.1163 379.696 90.8727 380.226L50.2336 468.617C49.9576 469.218 49.4794 469.702 48.8828 469.984C48.2863 470.267 47.6094 470.331 46.9708 470.164L35.6738 467.212C34.9746 467.031 34.3722 466.586 33.992 465.971C33.6118 465.356 33.483 464.618 33.6324 463.91C37.3494 446.338 59.6138 345.71 87.6458 317.857C88.1337 317.379 88.7806 317.098 89.4625 317.068Z" fill="#2F2E41"/>
<path id="Vector_31" d="M143.873 333.727C142.835 333.407 141.875 332.87 141.057 332.153C140.238 331.436 139.58 330.555 139.125 329.566C139.019 329.336 138.926 329.1 138.846 328.86L100.525 319.455C99.2681 319.14 98.1465 318.427 97.3273 317.422C96.5081 316.417 96.0351 315.174 95.9788 313.878L97.247 271.949C97.3016 270.145 98.0679 268.435 99.3782 267.195C100.689 265.955 102.436 265.285 104.238 265.332C106.041 265.38 107.751 266.14 108.994 267.448C110.238 268.755 110.914 270.502 110.874 272.307L110.103 306.851L142.008 319.798C142.297 319.61 142.599 319.443 142.911 319.296H142.912C144.051 318.767 145.302 318.524 146.556 318.588C147.81 318.651 149.03 319.019 150.111 319.661C151.191 320.302 152.099 321.197 152.757 322.268C153.415 323.34 153.802 324.555 153.886 325.81C153.969 327.065 153.747 328.322 153.237 329.471C152.727 330.621 151.946 331.629 150.96 332.408C149.975 333.187 148.814 333.715 147.58 333.945C146.345 334.175 145.073 334.1 143.873 333.727V333.727Z" fill="#A0616A"/>
<path id="Vector_32" d="M93.1598 292.842C92.829 292.484 92.5792 292.06 92.4272 291.597C92.2753 291.134 92.2248 290.644 92.2793 290.16L94.1786 273.253C94.0905 270.762 94.9922 268.338 96.686 266.512C98.3798 264.686 100.727 263.607 103.214 263.512C105.701 263.417 108.124 264.313 109.952 266.004C111.78 267.695 112.864 270.043 112.966 272.534L116.057 289.32C116.146 289.799 116.13 290.291 116.011 290.763C115.892 291.236 115.672 291.677 115.368 292.057C115.063 292.437 114.68 292.746 114.246 292.964C113.811 293.183 113.334 293.305 112.848 293.322L95.7626 293.926C95.2764 293.943 94.7921 293.856 94.3429 293.668C93.8937 293.481 93.4902 293.199 93.1598 292.842Z" fill="#5656D8"/>
<path id="Vector_33" d="M71.5533 258.566L73.3567 252.729L74.5899 259.28L84.7185 259.011L84.6718 252.552L88.5221 258.926L97.7004 256.895C95.7396 254.278 93.7554 251.621 92.5014 248.536C91.2474 245.452 90.7908 241.835 91.9626 238.713C94.8595 230.994 105.843 233.154 111.85 233.089C113.602 233.069 115.581 232.943 116.729 231.508C117.593 230.428 117.735 228.882 117.691 227.453C117.465 220.095 113.054 213.076 106.818 210.151C103.766 208.743 100.363 208.282 97.0468 208.826C95.3171 209.099 93.6375 209.629 92.0633 210.398C90.6598 211.084 89.1858 212.719 87.6747 212.675C86.4047 212.638 84.7236 211.313 83.3417 211.087C81.6769 210.829 79.9786 210.889 78.3357 211.262C75.0343 211.999 72.0583 213.782 69.8493 216.348C65.1548 221.81 63.7599 229.86 64.5781 237.271C65.3964 244.682 68.1647 251.651 70.9021 258.5" fill="#2F2E41"/>
<path id="Vector_34" d="M564.297 491H0.702736C0.516359 491 0.337615 490.926 0.205826 490.794C0.0740375 490.662 0 490.483 0 490.296C0 490.11 0.0740375 489.931 0.205826 489.799C0.337615 489.667 0.516359 489.592 0.702736 489.592H564.297C564.484 489.592 564.662 489.667 564.794 489.799C564.926 489.931 565 490.11 565 490.296C565 490.483 564.926 490.662 564.794 490.794C564.662 490.926 564.484 491 564.297 491Z" fill="#E6E6E6"/>
<path id="Vector_35" d="M554.789 482.278C556.934 480.536 558.497 478.18 559.27 475.524C559.841 472.837 558.698 469.682 556.143 468.642C553.273 467.532 550.204 469.53 547.882 471.54C545.561 473.55 542.889 475.852 539.843 475.419C541.403 473.995 542.568 472.191 543.225 470.182C543.881 468.174 544.006 466.029 543.589 463.957C543.463 463.095 543.099 462.286 542.539 461.62C540.952 459.914 538.058 460.65 536.145 461.994C530.078 466.27 528.386 474.52 528.363 481.951C527.744 479.264 528.258 476.471 528.246 473.772C528.234 471.073 527.476 467.93 525.166 466.504C523.733 465.733 522.125 465.351 520.499 465.394C517.769 465.301 514.735 465.569 512.868 467.567C510.535 470.045 511.153 474.216 513.172 476.915C515.19 479.614 518.247 481.355 521.059 483.248C523.324 484.593 525.255 486.434 526.706 488.634C526.878 488.939 527.019 489.26 527.126 489.592H544.219C548.056 487.644 551.612 485.184 554.789 482.278Z" fill="#F2F2F2"/>
<path id="Vector_36" d="M376.951 212.677C376.634 212.676 376.321 212.595 376.043 212.442C375.764 212.289 375.528 212.069 375.355 211.802C375.183 211.535 375.08 211.229 375.056 210.911C375.031 210.594 375.086 210.276 375.215 209.985L377.414 205.072C374.384 202.377 372.454 198.657 371.995 194.624C371.535 190.592 372.578 186.532 374.924 183.222C377.269 179.913 380.752 177.587 384.704 176.69C388.657 175.794 392.801 176.39 396.341 178.365C399.882 180.34 402.569 183.554 403.889 187.391C405.209 191.228 405.068 195.418 403.494 199.157C401.919 202.897 399.021 205.923 395.356 207.654C391.691 209.386 387.516 209.701 383.633 208.541L378.021 212.345C377.706 212.561 377.333 212.676 376.951 212.677ZM388.298 178.709C385.375 178.707 382.523 179.616 380.139 181.31C377.755 183.004 375.956 185.399 374.991 188.162C374.027 190.926 373.945 193.922 374.757 196.734C375.569 199.546 377.234 202.036 379.522 203.858L380.215 204.411L377.849 209.698L383.278 206.017L383.814 206.197C385.751 206.849 387.806 207.071 389.837 206.848C391.867 206.625 393.825 205.963 395.575 204.907C397.325 203.851 398.824 202.426 399.97 200.732C401.115 199.038 401.879 197.115 402.208 195.095C402.538 193.076 402.425 191.009 401.877 189.038C401.33 187.067 400.361 185.239 399.037 183.68C397.714 182.121 396.068 180.87 394.214 180.011C392.359 179.153 390.341 178.708 388.298 178.709Z" fill="#3F3D56"/>
<path id="Vector_37" d="M388.298 194.35C389.56 194.35 390.583 193.326 390.583 192.061C390.583 190.797 389.56 189.772 388.298 189.772C387.035 189.772 386.012 190.797 386.012 192.061C386.012 193.326 387.035 194.35 388.298 194.35Z" fill="#3F3D56"/>
<path id="Vector_38" d="M381.822 194.35C383.084 194.35 384.107 193.326 384.107 192.061C384.107 190.797 383.084 189.772 381.822 189.772C380.559 189.772 379.536 190.797 379.536 192.061C379.536 193.326 380.559 194.35 381.822 194.35Z" fill="#3F3D56"/>
<path id="Vector_39" d="M394.774 194.35C396.036 194.35 397.06 193.326 397.06 192.061C397.06 190.797 396.036 189.772 394.774 189.772C393.511 189.772 392.488 190.797 392.488 192.061C392.488 193.326 393.511 194.35 394.774 194.35Z" fill="#3F3D56"/>
</g>
<defs>
<clipPath id="clip0_12_32">
<rect width="565" height="491" fill="white"/>
</clipPath>
</defs>
</svg>
