<svg id="Layer_1" data-name="Layer 1" xmlns="http://www.w3.org/2000/svg" viewBox="0 0 1052.67 486.23"><defs><style>.cls-1{fill:#5656d8;stroke:#5656d8;}.cls-1,.cls-10,.cls-2,.cls-3,.cls-5,.cls-6{stroke-miterlimit:10;}.cls-1,.cls-2,.cls-3,.cls-5{fill-rule:evenodd;}.cls-10,.cls-2,.cls-3,.cls-5,.cls-6{fill:none;}.cls-2{stroke:#000;}.cls-3,.cls-5,.cls-6{stroke:#fff;}.cls-10,.cls-3,.cls-5,.cls-6{stroke-width:7px;}.cls-4{fill:#fff;}.cls-10,.cls-5,.cls-6{stroke-linecap:round;}.cls-7{font-size:131.67px;fill:#2b3033;font-family:Righteous-Regular, Righteous;letter-spacing:0.03em;}.cls-8{letter-spacing:0.01em;}.cls-9{letter-spacing:0.02em;}.cls-10{stroke:#2b3033;}</style></defs><text/><path class="cls-1" d="M370.49,143A142.5,142.5,0,1,1,513,285.5,142.5,142.5,0,0,1,370.49,143"/><path class="cls-2" d="M512.4,247.43"/><path class="cls-2" d="M556.54,259.69"/><path class="cls-2" d="M512.4,215.55"/><path class="cls-3" d="M544.73,236.49H525.2a1.41,1.41,0,0,0-1.18.62c-3.46,5.14-6.91,12.81-10.37,18.33a1.42,1.42,0,0,1-2.43-.05c-3.15-5.49-6.31-13.11-9.46-18.23a1.42,1.42,0,0,0-1.21-.67H480.06a8.12,8.12,0,0,1-8.12-8.12V142.85a8.12,8.12,0,0,1,8.12-8.12h64.67a8.13,8.13,0,0,1,8.13,8.12v85.52A8.13,8.13,0,0,1,544.73,236.49Z"/><path class="cls-4" d="M512.4,184.5a16.67,16.67,0,1,1,16.66-16.67A16.69,16.69,0,0,1,512.4,184.5Z"/><path class="cls-4" d="M512.4,151.67a16.17,16.17,0,1,1-16.17,16.16,16.18,16.18,0,0,1,16.17-16.16m0-1a17.17,17.17,0,1,0,17.16,17.16,17.16,17.16,0,0,0-17.16-17.16Z"/><path class="cls-4" d="M490.27,220.05a2,2,0,0,1-2-2,25,25,0,0,1,7.29-18,23.29,23.29,0,0,1,33.77,0,25,25,0,0,1,7.29,18,2,2,0,0,1-2.05,2Z"/><path class="cls-4" d="M512.4,193.35a23.18,23.18,0,0,1,16.52,7.1,24.45,24.45,0,0,1,7.15,17.62,1.52,1.52,0,0,1-1.55,1.48H490.27a1.53,1.53,0,0,1-1.55-1.48,24.5,24.5,0,0,1,7.15-17.62,23.2,23.2,0,0,1,16.53-7.1m0-1c-13.38,0-24.86,11.66-24.68,25.73a2.53,2.53,0,0,0,2.55,2.47h44.25a2.53,2.53,0,0,0,2.55-2.47c.19-14.07-11.29-25.73-24.67-25.73Z"/><path class="cls-5" d="M456.09,191.31c-3.46,5.14-6.92,12.82-10.37,18.34a1.42,1.42,0,0,1-2.43-.05c-3.15-5.5-6.31-13.11-9.46-18.24a1.41,1.41,0,0,0-1.21-.66H412.13a8.12,8.12,0,0,1-8.12-8.13V97.06a8.12,8.12,0,0,1,8.12-8.13H476.8a8.13,8.13,0,0,1,8.13,8.13v21.87"/><path class="cls-4" d="M444.47,138.7A16.67,16.67,0,1,1,461.13,122,16.69,16.69,0,0,1,444.47,138.7Z"/><path class="cls-4" d="M444.47,105.87A16.17,16.17,0,1,1,428.3,122a16.18,16.18,0,0,1,16.17-16.17m0-1A17.17,17.17,0,1,0,461.63,122a17.17,17.17,0,0,0-17.16-17.17Z"/><path class="cls-4" d="M422.34,174.26a2,2,0,0,1-2-2,25,25,0,0,1,7.29-18,23.67,23.67,0,0,1,16.89-7.25,23.26,23.26,0,0,1,14.39,5.07,2.09,2.09,0,0,1,.77,1.64v18.38a2.11,2.11,0,0,1-2.11,2.11Z"/><path class="cls-4" d="M444.47,147.56a22.81,22.81,0,0,1,14.09,5,1.56,1.56,0,0,1,.57,1.24v18.38a1.61,1.61,0,0,1-1.61,1.61H422.34a1.54,1.54,0,0,1-1.55-1.49,24.51,24.51,0,0,1,7.15-17.61,23.16,23.16,0,0,1,16.53-7.1m0-1c-13.38,0-24.86,11.66-24.68,25.72a2.54,2.54,0,0,0,2.55,2.48h35.18a2.61,2.61,0,0,0,2.61-2.61V153.77a2.56,2.56,0,0,0-1-2,23.89,23.89,0,0,0-14.7-5.18Z"/><path class="cls-5" d="M569.89,191.27c3.46,5.14,6.92,12.82,10.37,18.34a1.42,1.42,0,0,0,2.43-.05c3.15-5.5,6.31-13.12,9.46-18.24a1.41,1.41,0,0,1,1.21-.66h20.49a8.12,8.12,0,0,0,8.12-8.13V97a8.12,8.12,0,0,0-8.12-8.13H549.18A8.13,8.13,0,0,0,541.05,97v21.87"/><path class="cls-4" d="M581.51,138.66A16.67,16.67,0,1,1,598.18,122,16.68,16.68,0,0,1,581.51,138.66Z"/><path class="cls-4" d="M581.51,105.83A16.17,16.17,0,1,1,565.35,122a16.18,16.18,0,0,1,16.16-16.16m0-1A17.17,17.17,0,1,0,598.68,122a17.16,17.16,0,0,0-17.17-17.16Z"/><path class="cls-4" d="M568.46,174.22a2.11,2.11,0,0,1-2.11-2.11V153.72a2.09,2.09,0,0,1,.77-1.63A23.26,23.26,0,0,1,581.51,147a23.65,23.65,0,0,1,16.89,7.25,24.94,24.94,0,0,1,7.29,18,2,2,0,0,1-2.05,2Z"/><path class="cls-4" d="M581.51,147.52a23.16,23.16,0,0,1,16.53,7.1,24.47,24.47,0,0,1,7.15,17.61,1.54,1.54,0,0,1-1.55,1.49H568.46a1.61,1.61,0,0,1-1.61-1.61V153.72a1.58,1.58,0,0,1,.57-1.23,22.83,22.83,0,0,1,14.09-5m0-1a23.89,23.89,0,0,0-14.7,5.18,2.55,2.55,0,0,0-1,2v18.39a2.61,2.61,0,0,0,2.61,2.61h35.18a2.54,2.54,0,0,0,2.55-2.48c.18-14.06-11.3-25.72-24.68-25.72Z"/><path class="cls-6" d="M462,51.55c2.49-1.92,21.48-16,52.57-15.54,29.25.45,46.73,13.46,49.43,15.54"/><path class="cls-6" d="M487.31,62.94c1.24-.81,10.71-6.77,26.21-6.57,14.58.19,23.3,5.69,24.65,6.57"/><text class="cls-7" transform="translate(0 452.41)">PROM<tspan class="cls-8" x="399.18" y="0">O</tspan><tspan x="503.31" y="0">TE</tspan><tspan class="cls-9" x="664.77" y="0">Z</tspan><tspan x="744.8" y="0">ONE</tspan></text><path class="cls-10" d="M210,406.05a20.44,20.44,0,0,1,6.32-14.31A20.16,20.16,0,0,1,230,386.08"/><path class="cls-10" d="M221.84,404.93a8.66,8.66,0,0,1,7.74-7.24"/></svg>