<svg id="Layer_1" data-name="Layer 1" xmlns="http://www.w3.org/2000/svg" viewBox="0 0 1346.02 286"><defs><style>.cls-1{fill:#5656d8;stroke:#5656d8;}.cls-1,.cls-10,.cls-2,.cls-3,.cls-5,.cls-9{stroke-miterlimit:10;}.cls-10,.cls-2,.cls-3,.cls-5,.cls-9{fill:none;}.cls-2{stroke:#000;}.cls-2,.cls-3,.cls-5{fill-rule:evenodd;}.cls-3,.cls-5,.cls-9{stroke:#fff;}.cls-10,.cls-3,.cls-5,.cls-9{stroke-width:7px;}.cls-4{fill:#fff;}.cls-10,.cls-5,.cls-9{stroke-linecap:round;}.cls-6{font-size:131.67px;fill:#2b3033;font-family:Righteous-Regular, Righteous;letter-spacing:0.03em;}.cls-7{letter-spacing:0.01em;}.cls-8{letter-spacing:0.02em;}.cls-10{stroke:#2b3033;}</style></defs><circle class="cls-1" cx="143" cy="143" r="142.5"/><path class="cls-2" d="M142.41,242.43"/><path class="cls-2" d="M186.55,254.69"/><path class="cls-2" d="M142.41,210.55"/><path class="cls-3" d="M174.74,231.49H155.21a1.41,1.41,0,0,0-1.18.62c-3.46,5.14-6.91,12.81-10.37,18.33a1.42,1.42,0,0,1-2.43-.05c-3.15-5.49-6.31-13.11-9.46-18.23a1.42,1.42,0,0,0-1.21-.67H110.07a8.12,8.12,0,0,1-8.12-8.12V137.85a8.12,8.12,0,0,1,8.12-8.12h64.67a8.13,8.13,0,0,1,8.13,8.12v85.52A8.13,8.13,0,0,1,174.74,231.49Z"/><path class="cls-4" d="M142.41,179.5a16.67,16.67,0,1,1,16.66-16.67A16.69,16.69,0,0,1,142.41,179.5Z"/><path class="cls-4" d="M142.41,146.67a16.17,16.17,0,1,1-16.17,16.16,16.18,16.18,0,0,1,16.17-16.16m0-1a17.17,17.17,0,1,0,17.16,17.16,17.16,17.16,0,0,0-17.16-17.16Z"/><path class="cls-4" d="M120.28,215.05a2,2,0,0,1-2-2,25,25,0,0,1,7.29-18,23.29,23.29,0,0,1,33.77,0,25,25,0,0,1,7.29,18,2,2,0,0,1-2.05,2Z"/><path class="cls-4" d="M142.41,188.35a23.2,23.2,0,0,1,16.52,7.1,24.45,24.45,0,0,1,7.15,17.62,1.52,1.52,0,0,1-1.55,1.48H120.28a1.53,1.53,0,0,1-1.55-1.48,24.5,24.5,0,0,1,7.15-17.62,23.2,23.2,0,0,1,16.53-7.1m0-1c-13.38,0-24.86,11.66-24.68,25.73a2.53,2.53,0,0,0,2.55,2.47h44.25a2.53,2.53,0,0,0,2.55-2.47c.19-14.07-11.29-25.73-24.67-25.73Z"/><path class="cls-5" d="M86.1,186.31c-3.46,5.14-6.92,12.82-10.37,18.34a1.42,1.42,0,0,1-2.43-.05c-3.15-5.5-6.31-13.11-9.46-18.24a1.41,1.41,0,0,0-1.21-.66H42.14A8.12,8.12,0,0,1,34,177.57V92.06a8.12,8.12,0,0,1,8.12-8.13h64.67a8.13,8.13,0,0,1,8.13,8.13v21.87"/><path class="cls-4" d="M74.48,133.7A16.67,16.67,0,1,1,91.14,117,16.69,16.69,0,0,1,74.48,133.7Z"/><path class="cls-4" d="M74.48,100.87A16.17,16.17,0,1,1,58.31,117a16.18,16.18,0,0,1,16.17-16.17m0-1A17.17,17.17,0,1,0,91.64,117,17.17,17.17,0,0,0,74.48,99.87Z"/><path class="cls-4" d="M52.35,169.26a2,2,0,0,1-2.05-2,24.94,24.94,0,0,1,7.29-18,23.65,23.65,0,0,1,16.89-7.25,23.26,23.26,0,0,1,14.39,5.07,2.09,2.09,0,0,1,.77,1.64v18.38a2.11,2.11,0,0,1-2.11,2.11Z"/><path class="cls-4" d="M74.48,142.56a22.81,22.81,0,0,1,14.09,5,1.56,1.56,0,0,1,.57,1.24v18.38a1.61,1.61,0,0,1-1.61,1.61H52.35a1.54,1.54,0,0,1-1.55-1.49A24.47,24.47,0,0,1,58,149.66a23.16,23.16,0,0,1,16.53-7.1m0-1c-13.38,0-24.86,11.66-24.68,25.72a2.54,2.54,0,0,0,2.55,2.48H87.53a2.61,2.61,0,0,0,2.61-2.61V148.77a2.56,2.56,0,0,0-1-2,23.89,23.89,0,0,0-14.7-5.18Z"/><path class="cls-5" d="M199.9,186.27c3.46,5.14,6.92,12.82,10.37,18.34a1.42,1.42,0,0,0,2.43-.05c3.15-5.5,6.31-13.12,9.46-18.24a1.41,1.41,0,0,1,1.21-.66h20.49a8.12,8.12,0,0,0,8.12-8.13V92a8.12,8.12,0,0,0-8.12-8.13H179.19A8.13,8.13,0,0,0,171.06,92v21.87"/><path class="cls-4" d="M211.52,133.66A16.67,16.67,0,1,1,228.19,117,16.68,16.68,0,0,1,211.52,133.66Z"/><path class="cls-4" d="M211.52,100.83A16.17,16.17,0,1,1,195.36,117a16.18,16.18,0,0,1,16.16-16.16m0-1A17.17,17.17,0,1,0,228.69,117a17.16,17.16,0,0,0-17.17-17.16Z"/><path class="cls-4" d="M198.47,169.22a2.11,2.11,0,0,1-2.11-2.11V148.72a2.09,2.09,0,0,1,.77-1.63A23.26,23.26,0,0,1,211.52,142a23.65,23.65,0,0,1,16.89,7.25,24.94,24.94,0,0,1,7.29,18,2,2,0,0,1-2,2Z"/><path class="cls-4" d="M211.52,142.52a23.16,23.16,0,0,1,16.53,7.1,24.47,24.47,0,0,1,7.15,17.61,1.54,1.54,0,0,1-1.55,1.49H198.47a1.61,1.61,0,0,1-1.61-1.61V148.72a1.55,1.55,0,0,1,.57-1.23,22.81,22.81,0,0,1,14.09-5m0-1a23.89,23.89,0,0,0-14.7,5.18,2.55,2.55,0,0,0-1,2v18.39a2.61,2.61,0,0,0,2.61,2.61h35.18a2.54,2.54,0,0,0,2.55-2.48c.18-14.06-11.3-25.72-24.68-25.72Z"/><text class="cls-6" transform="translate(318.02 189.36)">PROM<tspan class="cls-7" x="399.18" y="0">O</tspan><tspan x="503.31" y="0">TE</tspan><tspan class="cls-8" x="664.77" y="0">Z</tspan><tspan x="744.8" y="0">ONE</tspan></text><path class="cls-9" d="M92,46.55c2.49-1.92,21.47-16,52.57-15.54,29.25.45,46.73,13.46,49.43,15.54"/><path class="cls-9" d="M117.32,57.94c1.24-.81,10.71-6.77,26.21-6.57,14.58.19,23.3,5.69,24.64,6.57"/><path class="cls-10" d="M528,143a20.46,20.46,0,0,1,6.32-14.31A20.14,20.14,0,0,1,548,123"/><path class="cls-10" d="M539.85,141.88a8.39,8.39,0,0,1,2.76-5,8.14,8.14,0,0,1,5-2.19"/></svg>