<svg xmlns="http://www.w3.org/2000/svg" viewBox="0 0 1024 1024">
  <path d="M 511.921 0 C 229.179 0 0 229.258 0 512 C 0 794.703 229.179 1024 511.921 1024 C 794.782 1024 1024 794.703 1024 512 C 1024 229.258 794.782 0 511.921 0 Z M 732.042 650.634 L 650.516 732.081 C 650.516 732.081 521.492 593.684 511.882 593.684 C 502.43 593.684 373.366 732.081 373.366 732.081 L 291.761 650.634 C 291.761 650.634 430.316 523.5 430.316 512.197 C 430.316 500.697 291.761 373.524 291.761 373.524 L 373.366 291.919 C 373.366 291.919 503.454 430.395 511.882 430.395 C 520.35 430.395 650.516 291.919 650.516 291.919 L 732.042 373.524 C 732.042 373.524 593.447 502.548 593.447 512.197 C 593.447 521.413 732.042 650.634 732.042 650.634 Z" fill="#8b889c"/>
</svg>